<svg id="Full_logo" data-name="Full logo" xmlns="http://www.w3.org/2000/svg" width="603" height="111.22" viewBox="0 0 603 111.22">
  <path id="Path_7379" data-name="Path 7379" d="M162.236,111.22h-35.59l44.011-55.61L126.646,0h35.432l26.375,33.207L214.669,0h35.59Q233.576,20.973,162.236,111.22Z"/>
  <path id="Path_7380" data-name="Path 7380" d="M325.22,27.8H282.8V54.18H325.22a12.554,12.554,0,0,0,9.215-3.813,12.822,12.822,0,0,0,3.973-9.374,12.309,12.309,0,0,0-3.973-9.215A12.307,12.307,0,0,0,325.22,27.8ZM282.8,111.22h-27.8V0H325.22A39.83,39.83,0,0,1,342.7,3.972,40.834,40.834,0,0,1,357,15.094,38.741,38.741,0,0,1,364.941,31.3,39.953,39.953,0,0,1,362.4,57.993a39.967,39.967,0,0,1-18.43,19.384l22.4,33.843H333.005L313.621,81.985H282.8Z"/>
  <path id="Path_7381" data-name="Path 7381" d="M446.712,27.8H404.289V54.18h42.423a12.555,12.555,0,0,0,9.215-3.813,12.821,12.821,0,0,0,3.972-9.374,12.308,12.308,0,0,0-3.972-9.215A12.307,12.307,0,0,0,446.712,27.8ZM404.289,111.22h-27.8V0h70.228a39.83,39.83,0,0,1,17.477,3.972,40.834,40.834,0,0,1,14.3,11.122A38.741,38.741,0,0,1,486.433,31.3a39.959,39.959,0,0,1-2.542,26.693,39.967,39.967,0,0,1-18.43,19.384l22.4,33.843H454.5L435.113,81.985H404.289Z"/>
  <path id="Path_7382" data-name="Path 7382" d="M519.585,111.22H491.78a115.355,115.355,0,0,1,4.607-32.889,100.359,100.359,0,0,1,12.552-27.646,118.991,118.991,0,0,1,18.749-21.767,104.983,104.983,0,0,1,23.2-15.889,124.412,124.412,0,0,1,25.74-9.692A107.163,107.163,0,0,1,603,0V111.22H575.2V32.73a86.4,86.4,0,0,0-28.917,16.842A77.308,77.308,0,0,0,527.529,74.2,97.206,97.206,0,0,0,519.585,111.22Z"/>
  <path id="Path_7383" data-name="Path 7383" d="M83.862,1h27.884a35.256,35.256,0,0,1-4.621,17.461A48.917,48.917,0,0,1,94.538,33.136a101.112,101.112,0,0,1-18.8,11.556,134.068,134.068,0,0,1-23.263,8.435,204.4,204.4,0,0,1-25.812,5.146A199.008,199.008,0,0,1,.211,60.045V1H28.095V37.738c10.729-1.968,19.069-2.568,27.673-6.561,7.967-3.712,14.459-6.8,19.027-11.81C79.893,13.069,83.65,7.8,83.862,1Z"/>
  <path id="Path_7384" data-name="Path 7384" d="M27.884,111.22H0A35.26,35.26,0,0,1,4.621,93.759,48.926,48.926,0,0,1,17.208,79.081a101.112,101.112,0,0,1,18.8-11.557,134.06,134.06,0,0,1,23.263-8.435,204.4,204.4,0,0,1,25.812-5.146,199.01,199.01,0,0,1,26.45-1.771V111.22H83.651V74.479c-10.729,1.968-19.069,2.568-27.673,6.561-7.967,3.712-14.459,6.8-19.027,11.81C31.853,99.148,28.1,104.415,27.884,111.22Z"/>
</svg>
