<svg width="230" height="42" viewBox="0 0 230 42" fill="none" xmlns="http://www.w3.org/2000/svg">
<path d="M10.6316 8.87823e-07C8.90327 9.66593e-07 7.50214 1.3768 7.50214 3.07516V16.1407C7.50214 16.9899 8.2027 17.6783 9.0669 17.6783H9.9703C10.8345 17.6783 11.535 16.9899 11.535 16.1407V7.03803C11.535 5.33966 12.9362 3.96287 14.6646 3.96287L26.0796 3.96287C27.808 3.96287 29.2092 5.33966 29.2092 7.03802V22.0636C29.2092 23.1447 28.9191 24.2067 28.3684 25.1425L20.3075 38.8393C19.9374 39.4682 20.0657 40.2658 20.6151 40.7518L21.4216 41.4652C22.1539 42.113 23.3059 41.9425 23.8115 41.1115L31.6887 28.1664C32.7045 26.4971 33.241 24.5884 33.2411 22.6434L33.2419 3.07529C33.242 1.37687 31.8409 -7.87721e-08 30.1124 0L10.6316 8.87823e-07Z" fill="#416E8C"/>
<path d="M24.8184 19.1921C24.8184 18.3429 24.1179 17.6545 23.2537 17.6545H22.3707C21.5066 17.6545 20.806 18.3429 20.806 19.1921V23.4206C20.806 23.8103 20.6555 24.1854 20.3848 24.4701L8.30688 37.1779C7.71702 37.7986 7.75085 38.7715 8.38244 39.3511L9.04578 39.9599C9.68234 40.5441 10.6818 40.505 11.2692 39.8731L24.4091 25.7357C24.6724 25.4524 24.8184 25.0825 24.8184 24.6988V19.1921Z" fill="#416E8C"/>
<path d="M16.7627 19.2091C16.7723 18.3533 16.069 17.6545 15.198 17.6545H14.3359C13.4717 17.6545 12.7711 18.3429 12.7711 19.1921V22.6684C12.7711 23.2419 12.4463 23.7677 11.9286 24.0324L0.842739 29.7003C-0.0952966 30.1799 -0.289192 31.4167 0.45847 32.1515L1.05019 32.733C1.54592 33.2202 2.31093 33.3238 2.92237 32.9867L15.9041 25.8294C16.3922 25.5602 16.6969 25.0554 16.7031 24.5054L16.7627 19.2091Z" fill="#416E8C"/>
<mask id="path-2-outside-1_3002_2681" maskUnits="userSpaceOnUse" x="43.3226" y="1.46243" width="187" height="40" fill="black">
<rect fill="white" x="43.3226" y="1.46243" width="187" height="40"/>
<path d="M72.0353 2.46243H52.3977C47.9454 2.46243 44.3226 6.08602 44.3226 10.5394V23.6283C44.3226 28.0816 47.9454 31.7052 52.3977 31.7052H72.0353C76.4875 31.7052 80.1104 28.0816 80.1104 23.6283V10.5394C80.1104 6.08602 76.4875 2.46243 72.0353 2.46243ZM76.8938 23.6283C76.8938 26.3037 74.727 28.471 72.0522 28.471H52.4146C49.7398 28.471 47.573 26.3037 47.573 23.6283V10.5394C47.573 7.86395 49.7398 5.69657 52.4146 5.69657H72.0522C74.727 5.69657 76.8938 7.86395 76.8938 10.5394V23.6283Z"/>
<path d="M101.814 28.4707H92.6891C90.0141 28.4707 87.8467 26.3033 87.8467 23.6279V18.5651C87.8467 15.8897 90.0141 13.7223 92.6891 13.7223H101.814C104.302 13.7223 106.351 15.6188 106.621 18.0232H109.871C109.584 13.8239 106.08 10.4882 101.814 10.4882H92.6891C88.2367 10.4882 84.6137 14.1118 84.6137 18.5651V23.6279C84.6137 28.0812 88.2367 31.7048 92.6891 31.7048H101.814C106.08 31.7048 109.601 28.3691 109.871 24.1698H106.621C106.368 26.5742 104.319 28.4707 101.814 28.4707Z"/>
<path d="M153.599 10.4882H143.949C139.496 10.4882 135.874 14.1118 135.874 18.5651V23.6279C135.874 28.0812 139.496 31.7048 143.949 31.7048H153.599C158.051 31.7048 161.673 28.0812 161.673 23.6279V18.5651C161.673 14.1118 158.068 10.4882 153.599 10.4882ZM158.457 23.6279C158.457 26.3033 156.29 28.4707 153.616 28.4707H143.966C141.291 28.4707 139.124 26.3033 139.124 23.6279V18.5651C139.124 15.8897 141.291 13.7223 143.966 13.7223H153.616C156.29 13.7223 158.457 15.8897 158.457 18.5651V23.6279Z"/>
<path d="M188.524 11.1662V14.5697C187.119 12.1991 184.545 10.6074 181.583 10.6074H174.1C169.648 10.6074 166.025 14.2311 166.025 18.6843V23.7472C166.025 28.2005 169.648 31.8241 174.1 31.8241H181.583C184.528 31.8241 187.119 30.2324 188.524 27.8618V30.0292C188.524 32.1458 188.524 33.3142 188.287 34.0254C187.812 35.5324 186.627 36.7006 185.137 37.1748C184.427 37.4118 183.258 37.4118 181.143 37.4118H173.66C171.239 37.4118 169.258 35.4307 169.258 33.0094H166.042C166.042 37.2256 169.462 40.6291 173.66 40.6291H181.16C183.664 40.6291 184.934 40.6291 186.136 40.2565C188.625 39.4607 190.589 37.4965 191.385 35.0074C191.757 33.8052 191.757 32.5522 191.757 30.0292V11.1662H188.524ZM187.948 23.7472C187.948 26.4226 185.781 28.5899 183.106 28.5899H174.117C171.442 28.5899 169.275 26.4226 169.275 23.7472V18.6843C169.275 16.0089 171.442 13.8416 174.117 13.8416H183.106C185.781 13.8416 187.948 16.0089 187.948 18.6843V23.7472Z"/>
<path d="M199.341 2.54745H196.108V30.9266H199.341V2.54745Z"/>
<path d="M128.594 21.0884V22.9002C128.594 25.22 128.594 26.4899 128.239 27.1164C128.002 27.5228 127.663 27.8614 127.257 28.0985C126.631 28.4541 125.361 28.4541 123.041 28.4541C120.723 28.4541 119.453 28.4541 118.826 28.0985C118.42 27.8614 118.082 27.5228 117.845 27.1164C117.489 26.4899 117.489 25.22 117.489 22.9002V13.7565H131.066V10.5394H117.489V6.61097H114.255V22.9171C114.255 25.7957 114.255 27.3704 115.051 28.742C115.576 29.6394 116.321 30.4013 117.218 30.9094C118.589 31.7052 120.164 31.7052 123.041 31.7052C125.919 31.7052 127.494 31.7052 128.865 30.9094C129.763 30.3844 130.524 29.6394 131.033 28.742C131.828 27.3704 131.828 25.7787 131.828 22.9171V21.0884H128.594Z"/>
<path d="M228.983 20.4789C228.983 18.701 228.983 17.8035 228.797 16.9569C228.119 13.8921 225.699 11.4707 222.651 10.8103C221.788 10.6241 220.907 10.6241 219.13 10.6241H214.322C211.8 10.6241 210.547 10.6241 209.346 10.9966C206.857 11.7924 204.893 13.7566 204.097 16.2458C203.725 17.448 203.725 18.701 203.725 21.2239C203.725 23.73 203.725 24.9999 204.097 26.2021C204.893 28.6913 206.857 30.6555 209.346 31.4513C210.547 31.8237 211.8 31.8237 214.322 31.8237H219.333C220.907 31.8237 221.687 31.8237 222.448 31.6884C225.529 31.0957 227.95 28.8097 228.729 25.7957H225.326C224.683 27.1843 223.396 28.2171 221.856 28.5219C221.399 28.6066 220.671 28.6066 219.35 28.6066H214.339C212.224 28.6066 211.055 28.6066 210.344 28.3695C208.837 27.8954 207.669 26.7101 207.195 25.22C206.992 24.5935 206.958 23.6115 206.958 21.9521H229V20.4789H228.983ZM206.958 18.8872C206.992 18.1422 207.043 17.6173 207.161 17.2278C207.635 15.7208 208.82 14.5524 210.31 14.0783C211.021 13.8413 212.189 13.8413 214.306 13.8413H219.113C220.603 13.8413 221.433 13.8413 221.94 13.9598C223.785 14.3662 225.224 15.8055 225.63 17.6511C225.699 17.939 225.733 18.3284 225.733 18.8872H206.958Z"/>
</mask>
<path d="M72.0353 2.46243H52.3977C47.9454 2.46243 44.3226 6.08602 44.3226 10.5394V23.6283C44.3226 28.0816 47.9454 31.7052 52.3977 31.7052H72.0353C76.4875 31.7052 80.1104 28.0816 80.1104 23.6283V10.5394C80.1104 6.08602 76.4875 2.46243 72.0353 2.46243ZM76.8938 23.6283C76.8938 26.3037 74.727 28.471 72.0522 28.471H52.4146C49.7398 28.471 47.573 26.3037 47.573 23.6283V10.5394C47.573 7.86395 49.7398 5.69657 52.4146 5.69657H72.0522C74.727 5.69657 76.8938 7.86395 76.8938 10.5394V23.6283Z" fill="#416E8C"/>
<path d="M101.814 28.4707H92.6891C90.0141 28.4707 87.8467 26.3033 87.8467 23.6279V18.5651C87.8467 15.8897 90.0141 13.7223 92.6891 13.7223H101.814C104.302 13.7223 106.351 15.6188 106.621 18.0232H109.871C109.584 13.8239 106.08 10.4882 101.814 10.4882H92.6891C88.2367 10.4882 84.6137 14.1118 84.6137 18.5651V23.6279C84.6137 28.0812 88.2367 31.7048 92.6891 31.7048H101.814C106.08 31.7048 109.601 28.3691 109.871 24.1698H106.621C106.368 26.5742 104.319 28.4707 101.814 28.4707Z" fill="#416E8C"/>
<path d="M153.599 10.4882H143.949C139.496 10.4882 135.874 14.1118 135.874 18.5651V23.6279C135.874 28.0812 139.496 31.7048 143.949 31.7048H153.599C158.051 31.7048 161.673 28.0812 161.673 23.6279V18.5651C161.673 14.1118 158.068 10.4882 153.599 10.4882ZM158.457 23.6279C158.457 26.3033 156.29 28.4707 153.616 28.4707H143.966C141.291 28.4707 139.124 26.3033 139.124 23.6279V18.5651C139.124 15.8897 141.291 13.7223 143.966 13.7223H153.616C156.29 13.7223 158.457 15.8897 158.457 18.5651V23.6279Z" fill="#416E8C"/>
<path d="M188.524 11.1662V14.5697C187.119 12.1991 184.545 10.6074 181.583 10.6074H174.1C169.648 10.6074 166.025 14.2311 166.025 18.6843V23.7472C166.025 28.2005 169.648 31.8241 174.1 31.8241H181.583C184.528 31.8241 187.119 30.2324 188.524 27.8618V30.0292C188.524 32.1458 188.524 33.3142 188.287 34.0254C187.812 35.5324 186.627 36.7006 185.137 37.1748C184.427 37.4118 183.258 37.4118 181.143 37.4118H173.66C171.239 37.4118 169.258 35.4307 169.258 33.0094H166.042C166.042 37.2256 169.462 40.6291 173.66 40.6291H181.16C183.664 40.6291 184.934 40.6291 186.136 40.2565C188.625 39.4607 190.589 37.4965 191.385 35.0074C191.757 33.8052 191.757 32.5522 191.757 30.0292V11.1662H188.524ZM187.948 23.7472C187.948 26.4226 185.781 28.5899 183.106 28.5899H174.117C171.442 28.5899 169.275 26.4226 169.275 23.7472V18.6843C169.275 16.0089 171.442 13.8416 174.117 13.8416H183.106C185.781 13.8416 187.948 16.0089 187.948 18.6843V23.7472Z" fill="#416E8C"/>
<path d="M199.341 2.54745H196.108V30.9266H199.341V2.54745Z" fill="#416E8C"/>
<path d="M128.594 21.0884V22.9002C128.594 25.22 128.594 26.4899 128.239 27.1164C128.002 27.5228 127.663 27.8614 127.257 28.0985C126.631 28.4541 125.361 28.4541 123.041 28.4541C120.723 28.4541 119.453 28.4541 118.826 28.0985C118.42 27.8614 118.082 27.5228 117.845 27.1164C117.489 26.4899 117.489 25.22 117.489 22.9002V13.7565H131.066V10.5394H117.489V6.61097H114.255V22.9171C114.255 25.7957 114.255 27.3704 115.051 28.742C115.576 29.6394 116.321 30.4013 117.218 30.9094C118.589 31.7052 120.164 31.7052 123.041 31.7052C125.919 31.7052 127.494 31.7052 128.865 30.9094C129.763 30.3844 130.524 29.6394 131.033 28.742C131.828 27.3704 131.828 25.7787 131.828 22.9171V21.0884H128.594Z" fill="#416E8C"/>
<path d="M228.983 20.4789C228.983 18.701 228.983 17.8035 228.797 16.9569C228.119 13.8921 225.699 11.4707 222.651 10.8103C221.788 10.6241 220.907 10.6241 219.13 10.6241H214.322C211.8 10.6241 210.547 10.6241 209.346 10.9966C206.857 11.7924 204.893 13.7566 204.097 16.2458C203.725 17.448 203.725 18.701 203.725 21.2239C203.725 23.73 203.725 24.9999 204.097 26.2021C204.893 28.6913 206.857 30.6555 209.346 31.4513C210.547 31.8237 211.8 31.8237 214.322 31.8237H219.333C220.907 31.8237 221.687 31.8237 222.448 31.6884C225.529 31.0957 227.95 28.8097 228.729 25.7957H225.326C224.683 27.1843 223.396 28.2171 221.856 28.5219C221.399 28.6066 220.671 28.6066 219.35 28.6066H214.339C212.224 28.6066 211.055 28.6066 210.344 28.3695C208.837 27.8954 207.669 26.7101 207.195 25.22C206.992 24.5935 206.958 23.6115 206.958 21.9521H229V20.4789H228.983ZM206.958 18.8872C206.992 18.1422 207.043 17.6173 207.161 17.2278C207.635 15.7208 208.82 14.5524 210.31 14.0783C211.021 13.8413 212.189 13.8413 214.306 13.8413H219.113C220.603 13.8413 221.433 13.8413 221.94 13.9598C223.785 14.3662 225.224 15.8055 225.63 17.6511C225.699 17.939 225.733 18.3284 225.733 18.8872H206.958Z" fill="#416E8C"/>
<path d="M72.0353 2.46243H52.3977C47.9454 2.46243 44.3226 6.08602 44.3226 10.5394V23.6283C44.3226 28.0816 47.9454 31.7052 52.3977 31.7052H72.0353C76.4875 31.7052 80.1104 28.0816 80.1104 23.6283V10.5394C80.1104 6.08602 76.4875 2.46243 72.0353 2.46243ZM76.8938 23.6283C76.8938 26.3037 74.727 28.471 72.0522 28.471H52.4146C49.7398 28.471 47.573 26.3037 47.573 23.6283V10.5394C47.573 7.86395 49.7398 5.69657 52.4146 5.69657H72.0522C74.727 5.69657 76.8938 7.86395 76.8938 10.5394V23.6283Z" stroke="#416E8C" stroke-width="0.775663" mask="url(#path-2-outside-1_3002_2681)"/>
<path d="M101.814 28.4707H92.6891C90.0141 28.4707 87.8467 26.3033 87.8467 23.6279V18.5651C87.8467 15.8897 90.0141 13.7223 92.6891 13.7223H101.814C104.302 13.7223 106.351 15.6188 106.621 18.0232H109.871C109.584 13.8239 106.08 10.4882 101.814 10.4882H92.6891C88.2367 10.4882 84.6137 14.1118 84.6137 18.5651V23.6279C84.6137 28.0812 88.2367 31.7048 92.6891 31.7048H101.814C106.08 31.7048 109.601 28.3691 109.871 24.1698H106.621C106.368 26.5742 104.319 28.4707 101.814 28.4707Z" stroke="#416E8C" stroke-width="0.775663" mask="url(#path-2-outside-1_3002_2681)"/>
<path d="M153.599 10.4882H143.949C139.496 10.4882 135.874 14.1118 135.874 18.5651V23.6279C135.874 28.0812 139.496 31.7048 143.949 31.7048H153.599C158.051 31.7048 161.673 28.0812 161.673 23.6279V18.5651C161.673 14.1118 158.068 10.4882 153.599 10.4882ZM158.457 23.6279C158.457 26.3033 156.29 28.4707 153.616 28.4707H143.966C141.291 28.4707 139.124 26.3033 139.124 23.6279V18.5651C139.124 15.8897 141.291 13.7223 143.966 13.7223H153.616C156.29 13.7223 158.457 15.8897 158.457 18.5651V23.6279Z" stroke="#416E8C" stroke-width="0.775663" mask="url(#path-2-outside-1_3002_2681)"/>
<path d="M188.524 11.1662V14.5697C187.119 12.1991 184.545 10.6074 181.583 10.6074H174.1C169.648 10.6074 166.025 14.2311 166.025 18.6843V23.7472C166.025 28.2005 169.648 31.8241 174.1 31.8241H181.583C184.528 31.8241 187.119 30.2324 188.524 27.8618V30.0292C188.524 32.1458 188.524 33.3142 188.287 34.0254C187.812 35.5324 186.627 36.7006 185.137 37.1748C184.427 37.4118 183.258 37.4118 181.143 37.4118H173.66C171.239 37.4118 169.258 35.4307 169.258 33.0094H166.042C166.042 37.2256 169.462 40.6291 173.66 40.6291H181.16C183.664 40.6291 184.934 40.6291 186.136 40.2565C188.625 39.4607 190.589 37.4965 191.385 35.0074C191.757 33.8052 191.757 32.5522 191.757 30.0292V11.1662H188.524ZM187.948 23.7472C187.948 26.4226 185.781 28.5899 183.106 28.5899H174.117C171.442 28.5899 169.275 26.4226 169.275 23.7472V18.6843C169.275 16.0089 171.442 13.8416 174.117 13.8416H183.106C185.781 13.8416 187.948 16.0089 187.948 18.6843V23.7472Z" stroke="#416E8C" stroke-width="0.775663" mask="url(#path-2-outside-1_3002_2681)"/>
<path d="M199.341 2.54745H196.108V30.9266H199.341V2.54745Z" stroke="#416E8C" stroke-width="0.775663" mask="url(#path-2-outside-1_3002_2681)"/>
<path d="M128.594 21.0884V22.9002C128.594 25.22 128.594 26.4899 128.239 27.1164C128.002 27.5228 127.663 27.8614 127.257 28.0985C126.631 28.4541 125.361 28.4541 123.041 28.4541C120.723 28.4541 119.453 28.4541 118.826 28.0985C118.42 27.8614 118.082 27.5228 117.845 27.1164C117.489 26.4899 117.489 25.22 117.489 22.9002V13.7565H131.066V10.5394H117.489V6.61097H114.255V22.9171C114.255 25.7957 114.255 27.3704 115.051 28.742C115.576 29.6394 116.321 30.4013 117.218 30.9094C118.589 31.7052 120.164 31.7052 123.041 31.7052C125.919 31.7052 127.494 31.7052 128.865 30.9094C129.763 30.3844 130.524 29.6394 131.033 28.742C131.828 27.3704 131.828 25.7787 131.828 22.9171V21.0884H128.594Z" stroke="#416E8C" stroke-width="0.775663" mask="url(#path-2-outside-1_3002_2681)"/>
<path d="M228.983 20.4789C228.983 18.701 228.983 17.8035 228.797 16.9569C228.119 13.8921 225.699 11.4707 222.651 10.8103C221.788 10.6241 220.907 10.6241 219.13 10.6241H214.322C211.8 10.6241 210.547 10.6241 209.346 10.9966C206.857 11.7924 204.893 13.7566 204.097 16.2458C203.725 17.448 203.725 18.701 203.725 21.2239C203.725 23.73 203.725 24.9999 204.097 26.2021C204.893 28.6913 206.857 30.6555 209.346 31.4513C210.547 31.8237 211.8 31.8237 214.322 31.8237H219.333C220.907 31.8237 221.687 31.8237 222.448 31.6884C225.529 31.0957 227.95 28.8097 228.729 25.7957H225.326C224.683 27.1843 223.396 28.2171 221.856 28.5219C221.399 28.6066 220.671 28.6066 219.35 28.6066H214.339C212.224 28.6066 211.055 28.6066 210.344 28.3695C208.837 27.8954 207.669 26.7101 207.195 25.22C206.992 24.5935 206.958 23.6115 206.958 21.9521H229V20.4789H228.983ZM206.958 18.8872C206.992 18.1422 207.043 17.6173 207.161 17.2278C207.635 15.7208 208.82 14.5524 210.31 14.0783C211.021 13.8413 212.189 13.8413 214.306 13.8413H219.113C220.603 13.8413 221.433 13.8413 221.94 13.9598C223.785 14.3662 225.224 15.8055 225.63 17.6511C225.699 17.939 225.733 18.3284 225.733 18.8872H206.958Z" stroke="#416E8C" stroke-width="0.775663" mask="url(#path-2-outside-1_3002_2681)"/>
</svg>
