<svg xmlns="http://www.w3.org/2000/svg" xmlns:xlink="http://www.w3.org/1999/xlink" width="220.954" height="48.836" viewBox="0 0 220.954 48.836">
  <defs>
    <linearGradient id="linear-gradient" x1="-1.939" y1="-0.486" x2="0.5" y2="2.121" gradientUnits="objectBoundingBox">
      <stop offset="0" stop-color="#4c16f4"/>
      <stop offset="1" stop-color="#b788f6"/>
    </linearGradient>
  </defs>
  <g id="Group_86" data-name="Group 86" transform="translate(7655.478 17171.668)">
    <path id="Path_884" data-name="Path 884" d="M1.45,0V-23.944H11.625A17.416,17.416,0,0,1,17.2-23.3,5.5,5.5,0,0,1,19.988-21a6.9,6.9,0,0,1,1.045,3.773,6.392,6.392,0,0,1-1.584,4.451,7.609,7.609,0,0,1-4.737,2.213A11.279,11.279,0,0,1,17.3-8.558a27.289,27.289,0,0,1,2.752,3.887L22.977,0H17.195L13.7-5.21a33.8,33.8,0,0,0-2.548-3.52,3.71,3.71,0,0,0-1.454-1A7.969,7.969,0,0,0,7.265-10h-.98V0ZM6.285-13.818H9.861a18.471,18.471,0,0,0,4.345-.294,2.6,2.6,0,0,0,1.356-1.013,3.118,3.118,0,0,0,.49-1.8,2.871,2.871,0,0,0-.645-1.952,2.961,2.961,0,0,0-1.821-.939q-.588-.082-3.528-.082H6.285ZM33.6-5.521l4.573.768a7.5,7.5,0,0,1-2.785,3.83A8.181,8.181,0,0,1,30.623.392q-4.524,0-6.7-2.956a9.932,9.932,0,0,1-1.715-5.978A9.578,9.578,0,0,1,24.465-15.3a7.423,7.423,0,0,1,5.7-2.442,7.7,7.7,0,0,1,6.109,2.556q2.238,2.556,2.14,7.832h-11.5a4.643,4.643,0,0,0,1.111,3.177,3.474,3.474,0,0,0,2.646,1.135,2.81,2.81,0,0,0,1.813-.588A3.631,3.631,0,0,0,33.6-5.521Zm.261-4.639a4.419,4.419,0,0,0-1.029-3.03,3.158,3.158,0,0,0-2.385-1.037,3.188,3.188,0,0,0-2.483,1.094A4.235,4.235,0,0,0,27-10.159Zm21.415-2.058-4.524.817a3.283,3.283,0,0,0-1.037-2.042,3.132,3.132,0,0,0-2.1-.686,3.429,3.429,0,0,0-2.736,1.184,6.068,6.068,0,0,0-1.021,3.961q0,3.087,1.037,4.361a3.405,3.405,0,0,0,2.785,1.274,3.093,3.093,0,0,0,2.14-.743,4.469,4.469,0,0,0,1.176-2.556L55.5-5.88A8,8,0,0,1,52.8-1.192,8.342,8.342,0,0,1,47.464.392a7.94,7.94,0,0,1-6.068-2.4,9.309,9.309,0,0,1-2.262-6.648,9.33,9.33,0,0,1,2.27-6.688,8.063,8.063,0,0,1,6.141-2.393,8.378,8.378,0,0,1,5.039,1.364A7.556,7.556,0,0,1,55.271-12.217ZM61.137,0h-4.59V-17.346H60.81v2.466a7.413,7.413,0,0,1,1.968-2.3,3.621,3.621,0,0,1,1.984-.555,5.825,5.825,0,0,1,3.022.866l-1.421,4a4.027,4.027,0,0,0-2.156-.751,2.547,2.547,0,0,0-1.633.531,3.629,3.629,0,0,0-1.053,1.919,27.264,27.264,0,0,0-.384,5.815ZM80.17,0V-2.6A6.685,6.685,0,0,1,77.679-.408a6.983,6.983,0,0,1-3.258.8,6.371,6.371,0,0,1-3.136-.768,4.532,4.532,0,0,1-2.009-2.156,9.621,9.621,0,0,1-.621-3.838V-17.346h4.59v7.971A22.1,22.1,0,0,0,73.5-4.892a2.445,2.445,0,0,0,.923,1.307,2.836,2.836,0,0,0,1.7.482,3.611,3.611,0,0,0,2.107-.645,3.282,3.282,0,0,0,1.274-1.6,18.579,18.579,0,0,0,.343-4.679v-7.317h4.59V0Zm7.009-19.7v-4.247h4.59V-19.7Zm0,19.7V-17.346h4.59V0ZM102.42-17.346v3.659H99.284V-6.7a17.388,17.388,0,0,0,.09,2.474,1.008,1.008,0,0,0,.408.58,1.3,1.3,0,0,0,.776.229,5.937,5.937,0,0,0,1.846-.441L102.8-.294a9.123,9.123,0,0,1-3.626.686,5.751,5.751,0,0,1-2.238-.416A3.266,3.266,0,0,1,95.47-1.1a4.255,4.255,0,0,1-.645-1.788,22.247,22.247,0,0,1-.147-3.234v-7.562H92.571v-3.659h2.107v-3.446l4.606-2.679v6.125Zm1.835,0h4.23v2.368a6.807,6.807,0,0,1,5.406-2.76,5.823,5.823,0,0,1,2.891.686,5.272,5.272,0,0,1,2.009,2.074,8.013,8.013,0,0,1,2.466-2.074,6.051,6.051,0,0,1,2.826-.686,6.293,6.293,0,0,1,3.234.776,4.753,4.753,0,0,1,1.976,2.278,9.883,9.883,0,0,1,.474,3.593V0h-4.59V-9.914a7.376,7.376,0,0,0-.474-3.332,2.174,2.174,0,0,0-1.96-.98,3.128,3.128,0,0,0-1.813.588,3.262,3.262,0,0,0-1.225,1.723,12.4,12.4,0,0,0-.376,3.585V0h-4.59V-9.506a13.185,13.185,0,0,0-.245-3.267,2.085,2.085,0,0,0-.759-1.094,2.4,2.4,0,0,0-1.4-.359,3.345,3.345,0,0,0-1.911.572A3.136,3.136,0,0,0,109.212-12a12.262,12.262,0,0,0-.367,3.577V0h-4.59ZM142.378-5.521l4.573.768a7.5,7.5,0,0,1-2.785,3.83A8.181,8.181,0,0,1,139.405.392q-4.524,0-6.7-2.956a9.932,9.932,0,0,1-1.715-5.978,9.578,9.578,0,0,1,2.254-6.754,7.423,7.423,0,0,1,5.7-2.442,7.7,7.7,0,0,1,6.109,2.556q2.238,2.556,2.14,7.832H135.7a4.643,4.643,0,0,0,1.111,3.177,3.474,3.474,0,0,0,2.646,1.135,2.81,2.81,0,0,0,1.813-.588A3.631,3.631,0,0,0,142.378-5.521Zm.261-4.639a4.419,4.419,0,0,0-1.029-3.03,3.158,3.158,0,0,0-2.385-1.037,3.188,3.188,0,0,0-2.483,1.094,4.235,4.235,0,0,0-.964,2.973ZM164.707,0h-4.59V-8.852a13.682,13.682,0,0,0-.294-3.634,2.549,2.549,0,0,0-.955-1.282,2.731,2.731,0,0,0-1.592-.457,3.68,3.68,0,0,0-2.14.653,3.292,3.292,0,0,0-1.3,1.731,14.964,14.964,0,0,0-.351,3.985V0H148.9V-17.346h4.263V-14.8a6.945,6.945,0,0,1,5.717-2.94,6.886,6.886,0,0,1,2.777.547,4.652,4.652,0,0,1,1.9,1.4,5.059,5.059,0,0,1,.9,1.927,14.335,14.335,0,0,1,.253,3.087Zm10.6-17.346v3.659h-3.136V-6.7a17.387,17.387,0,0,0,.09,2.474,1.008,1.008,0,0,0,.408.58,1.3,1.3,0,0,0,.776.229,5.937,5.937,0,0,0,1.846-.441l.392,3.561a9.123,9.123,0,0,1-3.626.686,5.751,5.751,0,0,1-2.238-.416A3.266,3.266,0,0,1,168.359-1.1a4.255,4.255,0,0,1-.645-1.788,22.246,22.246,0,0,1-.147-3.234v-7.562H165.46v-3.659h2.107v-3.446l4.606-2.679v6.125Z" transform="translate(-7610.208 -17147.225)"/>
    <path id="Path_885" data-name="Path 885" d="M1.979,0V-18.024H9.971a10.636,10.636,0,0,1,3.664.486,4.007,4.007,0,0,1,2,1.715,5.117,5.117,0,0,1,.75,2.717,4.533,4.533,0,0,1-1.242,3.234A6.284,6.284,0,0,1,11.311-8.2a6.185,6.185,0,0,1,1.439.9,12.394,12.394,0,0,1,1.979,2.4L17.865,0h-3L12.479-3.75q-1.045-1.623-1.721-2.484a5.412,5.412,0,0,0-1.211-1.2,3.58,3.58,0,0,0-1.088-.48A7.166,7.166,0,0,0,7.131-8H4.365V0ZM4.365-10.07H9.492a7.689,7.689,0,0,0,2.557-.338,2.721,2.721,0,0,0,1.4-1.082,2.926,2.926,0,0,0,.48-1.617,2.686,2.686,0,0,0-.928-2.1,4.343,4.343,0,0,0-2.932-.824h-5.7ZM30.752-5.586l3.038.376a7.412,7.412,0,0,1-2.662,4.132A8,8,0,0,1,26.163.392a7.934,7.934,0,0,1-6.035-2.344A9.158,9.158,0,0,1,17.9-8.526a9.585,9.585,0,0,1,2.254-6.795A7.63,7.63,0,0,1,26-17.738a7.416,7.416,0,0,1,5.684,2.368,9.41,9.41,0,0,1,2.2,6.664q0,.261-.016.784H20.936a6.666,6.666,0,0,0,1.617,4.377,4.813,4.813,0,0,0,3.626,1.519,4.5,4.5,0,0,0,2.76-.849A5.638,5.638,0,0,0,30.752-5.586ZM21.1-10.339h9.685a5.876,5.876,0,0,0-1.111-3.283,4.506,4.506,0,0,0-3.642-1.7,4.67,4.67,0,0,0-3.405,1.356A5.365,5.365,0,0,0,21.1-10.339ZM40.293,0l-6.6-17.346h3.1L40.522-6.958q.6,1.682,1.111,3.5.392-1.372,1.094-3.3l3.855-10.584H49.6L43.037,0ZM62.067-5.586,65.1-5.21a7.412,7.412,0,0,1-2.662,4.132A8,8,0,0,1,57.477.392a7.934,7.934,0,0,1-6.035-2.344,9.158,9.158,0,0,1-2.229-6.574,9.585,9.585,0,0,1,2.254-6.795,7.63,7.63,0,0,1,5.847-2.417A7.416,7.416,0,0,1,63-15.369a9.41,9.41,0,0,1,2.2,6.664q0,.261-.016.784H52.251a6.666,6.666,0,0,0,1.617,4.377,4.813,4.813,0,0,0,3.626,1.519,4.5,4.5,0,0,0,2.76-.849A5.638,5.638,0,0,0,62.067-5.586Zm-9.653-4.753H62.1a5.876,5.876,0,0,0-1.111-3.283,4.506,4.506,0,0,0-3.642-1.7,4.67,4.67,0,0,0-3.405,1.356A5.365,5.365,0,0,0,52.414-10.339ZM66.789,0V-17.346h2.646v2.466a6.235,6.235,0,0,1,5.521-2.858,7.242,7.242,0,0,1,2.883.563A4.534,4.534,0,0,1,79.806-15.7a5.674,5.674,0,0,1,.915,2.172,16.834,16.834,0,0,1,.163,2.858V0h-2.94V-10.551a7.92,7.92,0,0,0-.343-2.687,2.826,2.826,0,0,0-1.217-1.421,3.87,3.87,0,0,0-2.05-.531A4.763,4.763,0,0,0,71.093-14q-1.364,1.192-1.364,4.524V0ZM94.753,0V-2.548a6.349,6.349,0,0,1-5.5,2.94A7.014,7.014,0,0,1,86.382-.2a4.721,4.721,0,0,1-1.976-1.478,5.54,5.54,0,0,1-.906-2.18A14.929,14.929,0,0,1,83.32-6.6V-17.346h2.94v9.62a17.144,17.144,0,0,0,.18,3.1A3.066,3.066,0,0,0,87.615-2.8a3.644,3.644,0,0,0,2.221.661,4.839,4.839,0,0,0,2.483-.678,3.769,3.769,0,0,0,1.641-1.846,9.261,9.261,0,0,0,.482-3.389v-9.293h2.94V0Zm17.1-5.586,3.038.376a7.412,7.412,0,0,1-2.662,4.132,8,8,0,0,1-4.965,1.47,7.934,7.934,0,0,1-6.035-2.344A9.158,9.158,0,0,1,99-8.526a9.585,9.585,0,0,1,2.254-6.795,7.63,7.63,0,0,1,5.847-2.417,7.416,7.416,0,0,1,5.684,2.368,9.41,9.41,0,0,1,2.2,6.664q0,.261-.016.784H102.039a6.666,6.666,0,0,0,1.617,4.377,4.813,4.813,0,0,0,3.626,1.519,4.5,4.5,0,0,0,2.76-.849A5.638,5.638,0,0,0,111.856-5.586ZM102.2-10.339h9.685a5.876,5.876,0,0,0-1.111-3.283,4.506,4.506,0,0,0-3.642-1.7,4.67,4.67,0,0,0-3.405,1.356A5.365,5.365,0,0,0,102.2-10.339Z" transform="translate(-7610.208 -17123.225)"/>
    <g id="Group_83" data-name="Group 83" transform="translate(555.973 -27.794)">
      <g id="Group_79" data-name="Group 79" transform="translate(-8210.473 -17143.375)">
        <path id="Subtraction_10" data-name="Subtraction 10" d="M17.969,37.4H9.091L0,24.314v-7.9H4.032c3.437,0,5.489-1.75,5.489-4.681C9.521,8.766,7.469,7,4.032,7H0V0H4.248a14.343,14.343,0,0,1,9.544,3.115,10.14,10.14,0,0,1,3.531,7.916A10.215,10.215,0,0,1,14.5,18.262,12.966,12.966,0,0,1,6.831,21.9L17.967,37.4Z" transform="translate(17.969 8.853)" stroke="rgba(0,0,0,0)" stroke-linecap="round" stroke-miterlimit="10" stroke-width="1" fill="url(#linear-gradient)"/>
        <path id="Subtraction_11" data-name="Subtraction 11" d="M17.969,0H9.091L0,13.085v7.9H4.032c3.437,0,5.489,1.75,5.489,4.681,0,2.965-2.052,4.736-5.489,4.736H0v7H4.248a14.343,14.343,0,0,0,9.544-3.115,10.14,10.14,0,0,0,3.531-7.916A10.215,10.215,0,0,0,14.5,19.137,12.966,12.966,0,0,0,6.831,15.5L17.967,0Z" transform="translate(17.969 37.399) rotate(180)" stroke="rgba(0,0,0,0)" stroke-miterlimit="10" stroke-width="1" fill="url(#linear-gradient)"/>
      </g>
    </g>
  </g>
</svg>
