<svg width="180" height="32" viewBox="0 0 180 32" fill="none" xmlns="http://www.w3.org/2000/svg">
<path d="M47.0186 23.4441C45.4431 23.4441 44.0926 23.0745 42.9671 22.3354C41.8578 21.5962 41.078 20.5839 40.6279 19.2984L42.5571 18.1897C43.2164 20.2304 44.7195 21.2507 47.0669 21.2507C48.2244 21.2507 49.1087 21.0178 49.7196 20.5518C50.3304 20.0697 50.6361 19.435 50.6361 18.6477C50.6361 17.8442 50.3304 17.2417 49.7196 16.84C49.1087 16.4383 48.0878 16.0124 46.6569 15.5625C45.9495 15.3376 45.4109 15.1608 45.0411 15.0323C44.6714 14.8876 44.2051 14.6788 43.6424 14.4056C43.0957 14.1163 42.6858 13.8271 42.4125 13.5379C42.1391 13.2326 41.89 12.8389 41.6649 12.3569C41.4558 11.8748 41.3513 11.3285 41.3513 10.7179C41.3513 9.25567 41.8658 8.09871 42.8948 7.2471C43.9237 6.37939 45.1778 5.94556 46.6569 5.94556C47.9913 5.94556 49.1488 6.28296 50.1297 6.95787C51.1263 7.63272 51.8738 8.52454 52.3724 9.63323L50.4915 10.7179C49.7679 8.98248 48.4897 8.11477 46.6569 8.11477C45.7405 8.11477 45.0009 8.33974 44.4382 8.78968C43.8755 9.23956 43.5941 9.8502 43.5941 10.6215C43.5941 11.3606 43.8594 11.923 44.39 12.3086C44.9205 12.6943 45.837 13.096 47.1392 13.5138C47.6055 13.6584 47.9351 13.7628 48.128 13.8271C48.3209 13.8914 48.6184 14.0039 49.0204 14.1646C49.4383 14.3253 49.744 14.4538 49.9369 14.5502C50.1297 14.6466 50.387 14.7832 50.7083 14.96C51.0462 15.1367 51.2952 15.3054 51.4559 15.4661C51.617 15.6268 51.8016 15.8276 52.0105 16.0687C52.2356 16.2936 52.3968 16.5266 52.493 16.7677C52.5896 17.0087 52.6697 17.2899 52.7342 17.6113C52.8147 17.9166 52.8548 18.246 52.8548 18.5995C52.8548 20.0778 52.3162 21.2588 51.2391 22.1425C50.162 23.0103 48.755 23.4441 47.0186 23.4441Z" fill="#071637"/>
<path d="M65.7873 11.0802H67.8854V27.9521H65.7873V21.0587C64.7424 22.6495 63.2229 23.4449 61.2293 23.4449C59.5413 23.4449 58.1024 22.8343 56.9125 21.6131C55.723 20.3758 55.1278 18.8734 55.1278 17.1059C55.1278 15.3383 55.723 13.8439 56.9125 12.6228C58.1024 11.3855 59.5413 10.7668 61.2293 10.7668C63.2229 10.7668 64.7424 11.5622 65.7873 13.153V11.0802ZM61.4949 21.4202C62.7166 21.4202 63.7375 21.0105 64.5574 20.191C65.3772 19.3554 65.7873 18.3271 65.7873 17.1059C65.7873 15.8847 65.3772 14.8643 64.5574 14.0448C63.7375 13.2092 62.7166 12.7915 61.4949 12.7915C60.2889 12.7915 59.2762 13.2092 58.4559 14.0448C57.6361 14.8643 57.2259 15.8847 57.2259 17.1059C57.2259 18.3271 57.6361 19.3554 58.4559 20.191C59.2762 21.0105 60.2889 21.4202 61.4949 21.4202Z" fill="#071637"/>
<path d="M79.6127 11.0793H81.7108V23.1307H79.6127V21.3953C78.7606 22.7611 77.4584 23.444 75.706 23.444C74.291 23.444 73.1577 23.0021 72.3057 22.1184C71.4536 21.2185 71.0273 20.0054 71.0273 18.4789V11.0793H73.1255V18.3584C73.1255 19.3385 73.3906 20.1018 73.9213 20.6481C74.4521 21.1784 75.1835 21.4435 76.1161 21.4435C77.161 21.4435 78.0053 21.1221 78.6483 20.4794C79.2914 19.8206 79.6127 18.8163 79.6127 17.4665V11.0793Z" fill="#071637"/>
<path d="M95.1165 11.0802H97.2147V23.1315H95.1165V21.0587C94.0716 22.6495 92.5521 23.4449 90.5585 23.4449C88.8706 23.4449 87.4316 22.8343 86.2417 21.6131C85.0523 20.3758 84.457 18.8734 84.457 17.1059C84.457 15.3383 85.0523 13.8439 86.2417 12.6228C87.4316 11.3855 88.8706 10.7668 90.5585 10.7668C92.5521 10.7668 94.0716 11.5622 95.1165 13.153V11.0802ZM90.8241 21.4202C92.0458 21.4202 93.0668 21.0105 93.8866 20.191C94.7064 19.3554 95.1165 18.3271 95.1165 17.1059C95.1165 15.8847 94.7064 14.8643 93.8866 14.0448C93.0668 13.2092 92.0458 12.7915 90.8241 12.7915C89.6181 12.7915 88.6054 13.2092 87.7851 14.0448C86.9653 14.8643 86.5551 15.8847 86.5551 17.1059C86.5551 18.3271 86.9653 19.3554 87.7851 20.191C88.6054 21.0105 89.6181 21.4202 90.8241 21.4202Z" fill="#071637"/>
<path d="M102.72 13.1047C103.412 11.6103 104.666 10.8632 106.483 10.8632V13.0565C105.454 13.0083 104.569 13.2814 103.83 13.876C103.091 14.4705 102.72 15.4266 102.72 16.7442V23.1314H100.623V11.0801H102.72V13.1047Z" fill="#071637"/>
<path d="M109.572 18.07C109.781 19.1466 110.271 19.9821 111.043 20.5766C111.831 21.1712 112.795 21.4685 113.937 21.4685C115.529 21.4685 116.686 20.8819 117.409 19.7089L119.194 20.7213C118.02 22.537 116.252 23.4449 113.889 23.4449C111.976 23.4449 110.416 22.8503 109.21 21.6613C108.02 20.4562 107.426 18.9376 107.426 17.1059C107.426 15.2901 108.012 13.7797 109.186 12.5745C110.36 11.3694 111.879 10.7668 113.744 10.7668C115.513 10.7668 116.952 11.3935 118.061 12.6469C119.186 13.8841 119.749 15.3785 119.749 17.1299C119.749 17.4353 119.725 17.7486 119.677 18.07H109.572ZM113.744 12.7432C112.619 12.7432 111.686 13.0646 110.947 13.7074C110.207 14.334 109.748 15.1776 109.572 16.2382H117.627C117.45 15.0973 117 14.2296 116.276 13.6351C115.553 13.0405 114.709 12.7432 113.744 12.7432Z" fill="#071637"/>
<path d="M124.852 21.01H132.135V23.131H122.609V6.25916H124.852V21.01Z" fill="#071637"/>
<path d="M144.103 21.6131C142.866 22.8343 141.362 23.4449 139.594 23.4449C137.825 23.4449 136.322 22.8343 135.084 21.6131C133.862 20.3918 133.251 18.8895 133.251 17.1059C133.251 15.3222 133.862 13.8199 135.084 12.5987C136.322 11.3774 137.825 10.7668 139.594 10.7668C141.362 10.7668 142.866 11.3774 144.103 12.5987C145.342 13.8199 145.96 15.3222 145.96 17.1059C145.96 18.8895 145.342 20.3918 144.103 21.6131ZM139.594 21.3961C140.8 21.3961 141.812 20.9864 142.632 20.1669C143.453 19.3474 143.862 18.3271 143.862 17.1059C143.862 15.8847 143.453 14.8643 142.632 14.0448C141.812 13.2253 140.8 12.8156 139.594 12.8156C138.404 12.8156 137.399 13.2253 136.579 14.0448C135.759 14.8643 135.349 15.8847 135.349 17.1059C135.349 18.3271 135.759 19.3474 136.579 20.1669C137.399 20.9864 138.404 21.3961 139.594 21.3961Z" fill="#071637"/>
<path d="M158.668 11.0802H160.741V22.6254C160.741 24.409 160.139 25.7909 158.933 26.771C157.727 27.7673 156.28 28.2654 154.592 28.2654C153.242 28.2654 152.076 28.0083 151.095 27.4941C150.115 26.996 149.375 26.2729 148.876 25.3249L150.709 24.2885C151.369 25.6382 152.679 26.3131 154.641 26.3131C155.894 26.3131 156.875 25.9837 157.582 25.3249C158.306 24.6661 158.668 23.7662 158.668 22.6254V20.9141C157.607 22.5209 156.095 23.3243 154.134 23.3243C152.413 23.3243 150.958 22.7137 149.769 21.4926C148.579 20.2713 147.984 18.785 147.984 17.0336C147.984 15.2821 148.579 13.8038 149.769 12.5987C150.958 11.3774 152.413 10.7668 154.134 10.7668C156.111 10.7668 157.623 11.5622 158.668 13.153V11.0802ZM151.312 20.0946C152.132 20.9141 153.153 21.3238 154.375 21.3238C155.597 21.3238 156.618 20.9141 157.438 20.0946C158.258 19.2751 158.668 18.2547 158.668 17.0336C158.668 15.8284 158.258 14.8161 157.438 13.9966C156.618 13.1771 155.597 12.7674 154.375 12.7674C153.153 12.7674 152.132 13.1771 151.312 13.9966C150.492 14.8161 150.082 15.8284 150.082 17.0336C150.082 18.2547 150.492 19.2751 151.312 20.0946Z" fill="#071637"/>
<path d="M165.204 8.88654C164.802 8.88654 164.464 8.75 164.192 8.47682C163.918 8.20363 163.781 7.87423 163.781 7.48861C163.781 7.10295 163.918 6.77355 164.192 6.50041C164.464 6.21117 164.802 6.06653 165.204 6.06653C165.59 6.06653 165.92 6.21117 166.193 6.50041C166.466 6.77355 166.603 7.10295 166.603 7.48861C166.603 7.87423 166.466 8.20363 166.193 8.47682C165.92 8.75 165.59 8.88654 165.204 8.88654ZM164.143 23.1312V11.0799H166.241V23.1312H164.143Z" fill="#071637"/>
<path d="M179.879 23.131H177.274L171.776 17.4187V23.131H169.678V6.25916H171.776V16.4064L176.985 11.0797H179.686L173.922 16.9125L179.879 23.131Z" fill="#071637"/>
<path d="M31.3246 19.7606V31.6759H22.9307C17.4363 31.6759 0 31.6759 0 31.6759C0 31.6759 4.16444e-05 12.1349 4.16444e-05 7.15463V0.323975H12.0059V17.4006C12.0059 18.7054 13.0551 19.7606 14.3524 19.7606H31.3246Z" fill="#273B97"/>
<path d="M31.3241 0.323975H14.458V17.2874H31.3241V0.323975Z" fill="#FF6333"/>
</svg>
