<svg xmlns="http://www.w3.org/2000/svg" xmlns:xlink="http://www.w3.org/1999/xlink" width="622.51" height="105.102" viewBox="0 0 622.51 105.102">
  <defs>
    <linearGradient id="linear-gradient" x1="0.5" x2="0.695" y2="0.828" gradientUnits="objectBoundingBox">
      <stop offset="0" stop-color="#64df88"/>
      <stop offset="1" stop-color="#35b192"/>
    </linearGradient>
    <clipPath id="clip-path">
      <rect id="Rectangle_1866" data-name="Rectangle 1866" width="122.109" height="105.101" fill="url(#linear-gradient)"/>
    </clipPath>
  </defs>
  <g id="Group_3941" data-name="Group 3941" transform="translate(-1502.245 18779.051)">
    <path id="Path_8323" data-name="Path 8323" d="M-288.56-25.154h17.576V-61.812h36.408v36.659H-217v-87.88h-17.576v35.4h-36.408v-35.4H-288.56Zm83.737,0h16.948V-90.436h-16.948Zm-1.758-80.724a10.021,10.021,0,0,0,10.169,10.043,9.869,9.869,0,0,0,10.169-10.043,9.917,9.917,0,0,0-10.169-9.918A10,10,0,0,0-206.58-105.878Zm29.628,80.724H-160V-58.548C-160-69.47-152.471-76-142.679-76h2.385V-91.942c-11.3-.628-17.953,4.52-20.212,13.935V-90.436h-16.446Zm71.308,1.632c12.931,0,23.853-5.775,29.126-13.935L-89.7-47.375a18.274,18.274,0,0,1-15.944,8.788c-8.537,0-14.312-5.4-16.2-13.056H-73a34.41,34.41,0,0,0,.5-6.026c0-18.831-13.559-34.4-33.143-34.4s-33.771,15.567-33.771,34.4S-125.856-23.521-105.644-23.521Zm-16.2-40.8c1.883-7.784,7.909-13.182,15.944-13.182,8.286,0,14.437,5.9,16.321,13.182ZM-61.955-94.83v4.394h-9.165V-76h9.165v50.845h16.948V-76H-31.7V-90.436H-45.006v-4.143c0-5.147,2.385-7.784,7.407-7.784h4.394V-116.8h-7.03C-53.418-116.8-61.955-108.012-61.955-94.83Zm36.784,69.676H-8.222V-116.8H-25.171Zm60.135,1.632c20.212,0,34.775-15.316,34.775-34.148S55.177-91.942,34.964-91.942.189-76.5.189-57.669,14.752-23.521,34.964-23.521ZM17.137-57.669c0-10.169,7.03-18.831,17.827-18.831s17.827,8.662,17.827,18.831-7.03,18.706-17.827,18.706S17.137-47.5,17.137-57.669ZM89.325-25.154h19.459l9.792-37.161a84.571,84.571,0,0,0,2.009-9.792,65.151,65.151,0,0,0,2.26,9.792l10.671,37.161h18.329l20.338-65.282H153.728L144.689-53.4c-.753,3.139-1.507,6.654-2.009,9.918a89.152,89.152,0,0,0-2.134-10.043l-10.169-36.91H110.918l-9.541,36.91a89.152,89.152,0,0,0-2.134,10.043c-.5-3.264-1.255-6.779-2.009-9.918L88.822-90.436H68.987Z" transform="translate(1952.572 -18659.479)" fill="#fff"/>
    <g id="Group_3933" data-name="Group 3933" transform="translate(1502.245 -18779.051)">
      <g id="Group_3926" data-name="Group 3926" clip-path="url(#clip-path)">
        <path id="Path_8318" data-name="Path 8318" d="M61.054,26.351c-20.352,0-40.7,24.77-61.054,24.77V24.77C20.351,24.77,40.7,0,61.054,0Z" fill="url(#linear-gradient)"/>
        <path id="Path_8319" data-name="Path 8319" d="M231.935,30.787c20.352,0,40.7-24.77,61.054-24.77V32.368c-20.351,0-40.7,24.77-61.054,24.77Z" transform="translate(-170.881 -4.433)" fill="url(#linear-gradient)"/>
        <path id="Path_8320" data-name="Path 8320" d="M61.054,225.392c-20.352,0-40.7,24.77-61.054,24.77V223.811c20.351,0,40.7-24.77,61.054-24.77Z" transform="translate(0 -146.646)" fill="url(#linear-gradient)"/>
        <path id="Path_8321" data-name="Path 8321" d="M231.935,229.828c20.352,0,40.7-24.77,61.054-24.77V231.41c-20.351,0-40.7,24.77-61.054,24.77Z" transform="translate(-170.881 -151.079)" fill="url(#linear-gradient)"/>
      </g>
    </g>
  </g>
</svg>
